<?xml version="1.0" encoding="UTF-8"?>
<svg id="_Слой_1" data-name="Слой 1" xmlns="http://www.w3.org/2000/svg" viewBox="0 0 93 93">
  <defs>
    <style>
      .cls-1 {
        fill: #00b4d8;
        stroke-width: 0px;
      }

      .cls-2 {
        fill: #fff;
        stroke: #000;
        stroke-miterlimit: 10;
        stroke-width: 3px;
      }
    </style>
  </defs>
  <circle class="cls-2" cx="46.5" cy="46.5" r="45"/>
  <path class="cls-1" d="M17.75,34.04c.87,3.75,2.47,9.26,5.6,15.4,6.3,12.36,18.17,26.09,23.8,23.8,5.55-2.27,2.9-19.31,5.6-19.6,2.77-.3,4.98,17.73,11.2,18.2,2.2.17,4.69-1.87,5.6-4.2,3.06-7.83-12.53-17.02-9.8-23.8,2.22-5.52,14.15-3.37,15.4-8.4.8-3.24-3.14-8.18-7-8.4-6.69-.37-11.62,13.54-14,12.6-2.53-1,3.39-16.58-1.4-19.6-1.86-1.17-5.09-.3-7,1.4-3.45,3.07-2.13,8.46-2.8,25.2-.19,4.67-.39,6.7-1.4,7-1.99.6-6.06-5.81-8.4-11.2-3.84-8.83-2.79-14.4-5.6-15.4-1.55-.55-4.34.25-9.8,7Z"/>
</svg>