<?xml version="1.0" encoding="UTF-8"?>
<svg xmlns="http://www.w3.org/2000/svg" viewBox="0 0 67.55 47.29">
  <defs>
    <style>
      .cls-1 {
        fill: #000;
      }

      .cls-1, .cls-2, .cls-3 {
        stroke-width: 0px;
      }

      .cls-4 {
        fill: none;
        stroke: #258938;
        stroke-miterlimit: 10;
        stroke-width: 2px;
      }

      .cls-2 {
        fill: #258938;
      }

      .cls-3 {
        fill: #fff;
      }
    </style>
  </defs>
  <g id="_Слой_1" data-name="Слой 1">
    <path class="cls-3" d="M65.56,27.15c-5.89-12.93-18.77-21.2-32.68-21.02-12.73.17-24.47,7.39-30.63,18.77,1.33,1.77,12.24,15.77,31.5,16.27,18.8.49,30.3-12.28,31.81-14.03Z"/>
    <ellipse class="cls-1" cx="33.6" cy="24.13" rx="17" ry="10" transform="translate(8.5 57.02) rotate(-88.34)"/>
    <path class="cls-1" d="M1.63,24.39C15.15.54,46.18-1.68,63.11,19.85c1.31,1.65,2.51,3.46,3.53,5.31.46.69.2.95-.63,1.76,0,0-.89.46-.89.46-1.11.2-1.49.36-1.82-.37-.91-1.69-1.98-3.33-3.17-4.84C50.18,8.89,31.17,3.92,16.47,12.19c-5.53,2.99-10.32,7.48-13.98,12.71l-.86-.51h0Z"/>
    <path class="cls-1" d="M65.69,27c-14.84,22.86-48.79,22.74-64.23.57,0,0-.67-1.04-.67-1.04-.09-.19-.28-.31-.26-.57.02-.25.23-.62.81-1.19l.86-.5c1.08-.27,1.45-.46,1.81.22.56.93,1.25,1.87,1.9,2.72,10.2,13.1,29.66,17.58,44.65,10.46,5.51-2.52,10.47-6.44,14.29-11.24,0,0,.83.56.83.56h0Z"/>
    <path class="cls-2" d="M46.17,12.21c-3.3-7.16-13.83-5.39-19.63-2.38-1.91,1.1-5.01,3.12-2.8,5.4,3.47,3.31,8.41,5.51,12.8,7.43,1.87.74,3.78,1.32,5.75,1.91,1.55.52,3.33.89,4.67,2.1,2.68,2.43,1.03,6.42-.9,8.63-4.24,5.22-10.74,8.12-17.44,8.3-5.26.3-11.13-2.13-11.67-8.02,0,0,5.2-.46,5.2-.46-.18,5.23,8.49,4.94,12.13,4.05,3.72-.81,7.13-2.86,9.67-5.64,1.22-1.37,2.15-3.1,1.78-4.3-.21-1.13-2.23-1.84-4.14-2.44-3.94-1.18-7.93-2.8-11.52-4.81-3.12-1.86-9.73-4.58-9.3-8.98.45-2.47,2.64-4.01,4.58-5.23,5.73-3.18,12.76-4.86,19.12-2.37,2.23.91,4.23,2.69,5.47,4.79l-3.78,2.02h0Z"/>
    <path class="cls-4" d="M32.56.15c-2.33,15.67-4.67,31.33-7,47"/>
    <path class="cls-4" d="M41.56.15c-2.33,15.67-4.67,31.33-7,47"/>
  </g>
  <g id="_Слой_2" data-name="Слой 2">
    <path class="cls-1" d="M.07,29.05c-.01-1.44-.06-5.88-.07-7.24,1.23.53,5.36,2.3,6.66,2.85,0,0-.2.98-.2.98l-5.21.05,1.85-1.23-2.05,4.79s-.98-.2-.98-.2H.07Z"/>
    <path class="cls-1" d="M67.55,23.02c-.2,1.42-.83,5.82-1.03,7.17-1.14-.71-4.95-3.08-6.15-3.83,0,0,.34-.94.34-.94l5.16.74-2.02.94,2.75-4.42s.94.34.94.34h0Z"/>
  </g>
</svg>