<?xml version="1.0" encoding="UTF-8"?>
<svg id="_Слой_1" data-name="Слой 1" xmlns="http://www.w3.org/2000/svg" viewBox="0 0 93 93">
  <defs>
    <style>
      .cls-1 {
        fill: #fff;
        stroke: #000;
        stroke-width: 3px;
      }

      .cls-1, .cls-2 {
        stroke-miterlimit: 10;
      }

      .cls-2 {
        fill: #00b4d8;
        stroke: #00b4d8;
      }
    </style>
  </defs>
  <circle class="cls-1" cx="46.5" cy="46.5" r="45"/>
  <path class="cls-2" d="M18.52,57.43c9.4-12.77,19.07-25.35,28.55-38.07.97-1.31,3.35-4.55,5.44-4.08,1.69.38,2.42,3.02,2.72,4.08,1.43,5.02,11.79,39.25,13.6,44.87.37,1.15,1.32,4.02,0,5.44-1.36,1.47-4.46.7-6.8,0-6.19-1.86-11.98-3.64-17.67-5.44,5.8-27.77,7.64-39.22,6.8-39.43-.85-.21-4.51,10.79-12.24,38.07-2.84.04-10.54.15-17.67,0-1.22-.03-3.45-.1-4.08-1.36-.67-1.35.83-3.35,1.36-4.08Z"/>
</svg>